<svg class="svg-icon" style="width: 1em; height: 1em;vertical-align: middle;fill: currentColor;overflow: hidden;" viewBox="0 0 1024 1024" version="1.1" xmlns="http://www.w3.org/2000/svg"><path d="M609.3 909.7c-126.3 0-252.8-54-346.9-148.1C78.5 577.7 64.1 293.1 230.1 127l1.2-1.2c7.6-7.6 17-11.6 27.2-11.6 11.4 0 22.8 5.2 30.5 13.8 5.4 6 11.4 16.3 9.7 31.4-16.2 143.8 41.8 297.4 155.1 410.7C554 670.5 686.2 728 816.5 728c16.1 0 32.3-0.9 48.1-2.7 1.7-0.2 3.4-0.3 5.1-0.3 19.6 0 32 12.9 37 25 6.3 15 3.1 31-8.5 42.6l-1.2 1.2c-74.7 74.8-176.9 115.9-287.7 115.9z" fill="#FFD243" /><path d="M258.5 130.5c6.8 0 13.7 3.1 18.4 8.4 4.6 5.1 6.5 11.4 5.6 18.7-16.8 148.7 42.9 307.2 159.8 424.1C545.6 685 682 744.3 816.5 744.3c16.7 0 33.5-0.9 49.9-2.8 1.1-0.1 2.2-0.2 3.3-0.2 11.6 0 19 7.8 22 15 2.2 5.2 4.4 15.4-5 24.9l-1.1 1.1C813.8 854 715.8 893.5 609.3 893.5c-59.7 0-118.9-12.1-176-35.9-59.2-24.8-112.9-60.9-159.4-107.5-86.4-86.4-137.2-198-142.9-314.1-5.6-114.9 33.6-220.6 110.5-297.5l1.1-1.1c4.7-4.6 10-6.9 15.9-6.9m-0.1-32.5c-13.5 0-27.2 5-38.6 16.3l-1.2 1.2C45.9 288.2 60.4 582.6 250.9 773.1 352.3 874.5 483.1 926 609.3 926c111 0 218.4-39.8 299.2-120.6l1.2-1.2c35.7-36 8.4-95.4-40.1-95.4-2.3 0-4.6 0.1-6.9 0.4-15.2 1.7-30.7 2.6-46.2 2.6-121.2 0-250.1-52-351.2-153-114-114-165.6-263.5-150.5-397.4C319 124.5 289.5 98 258.4 98z" fill="#454A57" /><path d="M729.2 811C444.6 811 213 579.4 213 294.8c0-9 7.3-16.3 16.3-16.3s16.3 7.3 16.3 16.3c0 266.7 217 483.8 483.8 483.8 9 0 16.3 7.3 16.3 16.3-0.2 8.9-7.5 16.1-16.5 16.1z" fill="#454A57" /><path d="M191.1 172.6c11.8-16.2 24.9-31.4 39-45.6l1.2-1.2c7.6-7.6 17.1-11.6 27.2-11.6 11.4 0 22.8 5.2 30.5 13.8 5.4 6 11.4 16.3 9.7 31.4-1.5 13.5-2.4 27.3-2.6 41.2l-105-28z" fill="#C19311" /><path d="M258.5 130.5c6.8 0 13.7 3.1 18.4 8.4 4.6 5.1 6.5 11.4 5.6 18.7-0.8 7.3-1.5 14.6-1.9 22.1L219 163.2c7.2-8.6 14.7-16.8 22.6-24.7l1.1-1.1c4.6-4.6 9.9-6.9 15.8-6.9m0-32.5c-13.5 0-27.2 5-38.6 16.3l-1.2 1.2c-20.7 20.7-38.6 43.1-53.9 66.8L312.5 222c-0.7-20.4 0-40.7 2.3-60.6C319 124.5 289.5 98 258.5 98z" fill="#454A57" /></svg>